HIERARCHY
ROOT Hips
{
	OFFSET 0.000000 88.474243 0.000000
	CHANNELS 6 Xposition Yposition Zposition Zrotation Yrotation Xrotation 
	JOINT Hips_Spine
	{
		OFFSET 0.000000 0.000000 0.000000
		CHANNELS 3 Zrotation Yrotation Xrotation
		JOINT Spine
		{
			OFFSET 0.005100 8.711998 -0.691000
			CHANNELS 3 Zrotation Yrotation Xrotation
			JOINT Spine1
			{
				OFFSET -0.009200 8.660301 -1.275000
				CHANNELS 3 Zrotation Yrotation Xrotation
				JOINT Spine2
				{
					OFFSET 0.006300 9.852501 -1.857000
					CHANNELS 3 Zrotation Yrotation Xrotation
					JOINT Spine2_Neck
					{
						OFFSET 0.000000 0.000000 0.000000
						CHANNELS 3 Zrotation Yrotation Xrotation
						JOINT Neck
						{
							OFFSET 0.016300 11.420799 -0.263300
							CHANNELS 3 Zrotation Yrotation Xrotation
							End Site #name: Head
							{
								OFFSET -0.019200 9.262405 2.362500
							}
						}
					}
					JOINT Spine2_LeftShoulder
					{
						OFFSET 0.000000 0.000000 0.000000
						CHANNELS 3 Zrotation Yrotation Xrotation
						JOINT LeftShoulder
						{
							OFFSET 5.616900 6.732201 -0.345700
							CHANNELS 3 Zrotation Yrotation Xrotation
							JOINT LeftArm
							{
								OFFSET 10.664888 -0.183372 -2.440700
								CHANNELS 3 Zrotation Yrotation Xrotation
								JOINT LeftForeArm
								{
									OFFSET 27.459126 0.000000 0.000000
									CHANNELS 3 Zrotation Yrotation Xrotation
									End Site #name: LeftHand
									{
										OFFSET 21.306858 0.000000 0.000000
									}
								}
							}
						}
					}
					JOINT Spine2_RightShoulder
					{
						OFFSET 0.000000 0.000000 0.000000
						CHANNELS 3 Zrotation Yrotation Xrotation
						JOINT RightShoulder
						{
							OFFSET -5.580300 6.737503 -0.344400
							CHANNELS 3 Zrotation Yrotation Xrotation
							JOINT RightArm
							{
								OFFSET -10.679335 -0.188484 -2.383900
								CHANNELS 3 Zrotation Yrotation Xrotation
								JOINT RightForeArm
								{
									OFFSET -27.503529 0.000000 0.000000
									CHANNELS 3 Zrotation Yrotation Xrotation
									End Site #name: RightHand
									{
										OFFSET -21.306808 0.000000 0.000000
									}
								}
							}
						}
					}
				}
			}
		}
	}
	JOINT Hips_LeftUpLeg
	{
		OFFSET 0.000000 0.000000 0.000000
		CHANNELS 3 Zrotation Yrotation Xrotation
		JOINT LeftUpLeg
		{
			OFFSET 6.857700 -6.739601 0.312100
			CHANNELS 3 Zrotation Yrotation Xrotation
			JOINT LeftLeg
			{
				OFFSET -0.367590 -34.731552 -4.572400
				CHANNELS 3 Zrotation Yrotation Xrotation
				End Site #name: LeftFoot
				{
					OFFSET 0.367590 -34.656704 -6.067400
				}
			}
		}
	}
	JOINT Hips_RightUpLeg
	{
		OFFSET 0.000000 0.000000 0.000000
		CHANNELS 3 Zrotation Yrotation Xrotation
		JOINT RightUpLeg
		{
			OFFSET -6.876100 -6.733299 0.301000
			CHANNELS 3 Zrotation Yrotation Xrotation
			JOINT RightLeg
			{
				OFFSET 0.347353 -34.795158 -4.515900
				CHANNELS 3 Zrotation Yrotation Xrotation
				End Site #name: RightFoot
				{
					OFFSET -0.347353 -34.589367 -6.070300
				}
			}
		}
	}
}
MOTION
Frames: 17
Frame Time: 0.041667
6.103200 0.727331 1.536045 -4.196058 -9.832110 -1.049683 0.000000 0.000000 -0.000000 -0.269643 0.628724 4.375644 -0.823016 1.313414 8.730677 0.000000 0.000000 0.000000 -0.859837 1.239025 8.730458 1.313262 -2.294378 2.856223 -0.799062 1.303349 8.745198 2.917958 0.787343 0.411361 -73.921784 -11.920022 25.951346 -179.793783 -86.676398 179.591732 -0.806262 1.234346 8.583136 -3.939494 -1.835590 1.069344 79.037097 -9.542013 4.025536 -175.505404 83.130358 -175.804403 0.000000 -0.000000 -0.000000 1.023410 1.060149 -20.148504 -0.907765 0.528936 28.664122 0.000000 0.000000 -0.000000 -8.000504 0.379360 -15.772940 0.280566 -0.789644 18.199677 
6.301117 0.758151 1.564227 -4.129308 -10.050781 -1.061768 0.000000 0.000000 -0.000000 -0.272234 0.639245 4.345112 -0.800573 1.307196 8.664206 0.000000 0.000000 0.000000 -0.838645 1.228740 8.640881 1.058691 -2.537444 2.936659 -0.781021 1.297206 8.664067 2.913405 0.751953 0.411445 -73.978408 -11.508051 25.715817 179.763099 -86.615853 -179.969698 -0.788936 1.226200 8.517314 -3.868595 -1.821716 1.050765 79.212951 -9.667573 3.796548 -175.263832 83.137587 -175.578073 0.000000 -0.000000 -0.000000 0.855295 1.007114 -20.014160 -0.889126 0.506388 28.272913 0.000000 0.000000 -0.000000 -8.149684 0.603443 -15.651279 0.280810 -0.781183 17.811971 
6.487731 0.785437 1.582646 -4.073236 -10.228381 -1.069602 -0.000000 0.000000 -0.000000 -0.278669 0.641047 4.321409 -0.778439 1.302931 8.605629 0.000000 0.000000 0.000000 -0.820978 1.217037 8.554638 0.961292 -2.705621 3.070068 -0.765905 1.293231 8.592558 2.918094 0.730295 0.416710 -74.052871 -11.135758 25.515883 179.333557 -86.556362 -179.549210 -0.775537 1.220071 8.461984 -3.834795 -1.806610 1.035979 79.368307 -9.791356 3.604846 -175.006418 83.182968 -175.338529 0.000000 -0.000000 -0.000000 0.701916 0.952569 -19.861538 -0.882614 0.482125 27.910220 0.000000 0.000000 -0.000000 -8.273855 0.801909 -15.517354 0.294339 -0.788533 17.463402 
6.660570 0.808766 1.590019 -4.029812 -10.347988 -1.076401 -0.000000 0.000000 -0.000000 -0.282832 0.643025 4.304559 -0.755935 1.301014 8.557440 0.000000 0.000000 0.000000 -0.803647 1.208034 8.479546 0.882692 -2.835022 3.166282 -0.751623 1.290338 8.530659 2.928086 0.717453 0.422677 -74.141501 -10.786127 25.344718 178.860631 -86.524160 -179.087939 -0.762207 1.215121 8.415231 -3.790706 -1.775475 1.022529 79.492516 -9.902607 3.462799 -174.753786 83.224510 -175.111505 0.000000 -0.000000 -0.000000 0.558428 0.909960 -19.694418 -0.884880 0.456696 27.575987 0.000000 0.000000 -0.000000 -8.377671 0.949894 -15.402124 0.288314 -0.791925 17.233984 
6.817032 0.827924 1.586294 -3.995841 -10.462204 -1.078320 -0.000000 0.000000 -0.000000 -0.281990 0.643053 4.292353 -0.734875 1.300288 8.509828 0.000000 0.000000 0.000000 -0.787455 1.202647 8.415643 0.828435 -2.930260 3.215421 -0.738243 1.288685 8.477645 2.946476 0.720018 0.427973 -74.262369 -10.464376 25.199088 178.404372 -86.523007 -178.642653 -0.749072 1.213230 8.375483 -3.741296 -1.743110 1.010484 79.575166 -9.982240 3.370177 -174.535534 83.269436 -174.919252 0.000000 -0.000000 -0.000000 0.416570 0.891120 -19.548068 -0.889465 0.435857 27.319621 0.000000 0.000000 -0.000000 -8.472949 1.055571 -15.316476 0.275659 -0.780951 17.130665 
6.951398 0.842402 1.573468 -3.964291 -10.543554 -1.073428 -0.000000 0.000000 -0.000000 -0.278049 0.643997 4.285808 -0.714827 1.301550 8.466928 0.000000 0.000000 0.000000 -0.770914 1.200555 8.360632 0.799243 -2.991122 3.230718 -0.724444 1.288725 8.432619 2.972543 0.742344 0.431169 -74.380270 -10.180994 25.085679 177.975306 -86.549791 -178.223790 -0.737088 1.216485 8.340189 -3.693947 -1.712721 0.997790 79.604028 -10.045361 3.308426 -174.357626 83.297102 -174.766943 0.000000 -0.000000 -0.000000 0.281945 0.903842 -19.418422 -0.891208 0.422018 27.105570 0.000000 0.000000 -0.000000 -8.559991 1.129284 -15.261826 0.260325 -0.764760 17.122684 
7.056513 0.853165 1.555398 -3.924253 -10.613517 -1.063867 -0.000000 -0.000000 -0.000000 -0.272842 0.641652 4.277601 -0.697902 1.303327 8.426065 0.000000 0.000000 0.000000 -0.753858 1.201957 8.309029 0.794775 -3.016575 3.216328 -0.710884 1.289970 8.398383 3.004769 0.778566 0.433110 -74.514143 -9.918454 24.976923 177.571048 -86.599703 -177.827236 -0.725596 1.224473 8.310251 -3.653431 -1.687351 0.986021 79.590958 -10.069827 3.286027 -174.289246 83.296200 -174.719027 0.000000 -0.000000 -0.000000 0.167464 0.954931 -19.302332 -0.891094 0.415929 26.965407 -0.000000 0.000000 -0.000000 -8.645301 1.163927 -15.236339 0.241537 -0.757831 17.159592 
7.126158 0.860170 1.534320 -3.884281 -10.661304 -1.052065 -0.000000 -0.000000 -0.000000 -0.266108 0.638374 4.267327 -0.683926 1.307755 8.390991 0.000000 0.000000 0.000000 -0.736514 1.207657 8.264610 0.811580 -3.008794 3.171589 -0.698264 1.292246 8.373077 3.039618 0.825921 0.433706 -74.636820 -9.681117 24.881116 177.176667 -86.674145 -177.437785 -0.714902 1.236410 8.285879 -3.614863 -1.656105 0.974178 79.541634 -10.053573 3.304632 -174.299732 83.262076 -174.743938 0.000000 -0.000000 -0.000000 0.045069 1.035432 -19.216282 -0.889388 0.414281 26.884909 -0.000000 0.000000 -0.000000 -8.742639 1.162758 -15.208109 0.228657 -0.746854 17.214553 
7.152420 0.864089 1.513701 -3.844505 -10.688391 -1.034464 -0.000000 -0.000000 -0.000000 -0.258097 0.632274 4.253462 -0.671958 1.312985 8.363289 0.000000 0.000000 0.000000 -0.718601 1.217858 8.229665 0.846903 -2.972919 3.104639 -0.684968 1.295972 8.356695 3.071433 0.880596 0.431616 -74.737091 -9.477632 24.794181 176.829961 -86.768714 -177.091846 -0.703335 1.250312 8.267580 -3.587952 -1.623067 0.964758 79.476067 -10.021834 3.337910 -174.385110 83.209743 -174.835784 0.000000 -0.000000 -0.000000 -0.065854 1.117299 -19.141736 -0.884954 0.414493 26.863482 -0.000000 0.000000 -0.000000 -8.846841 1.138453 -15.197950 0.230475 -0.734466 17.298389 
7.128173 0.864850 1.493612 -3.765381 -10.740785 -1.009002 -0.000000 -0.000000 -0.000000 -0.249297 0.626825 4.238775 -0.661180 1.320046 8.336463 0.000000 0.000000 0.000000 -0.701135 1.230921 8.207020 0.898780 -2.911057 3.032390 -0.672026 1.299887 8.347289 3.095652 0.930091 0.428985 -74.799742 -9.316112 24.736241 176.506846 -86.887812 -176.767577 -0.691873 1.264665 8.253607 -3.576247 -1.609209 0.959167 79.403387 -10.025636 3.355447 -174.507840 83.137339 -174.954849 0.000000 -0.000000 -0.000000 -0.153672 1.197607 -19.089185 -0.878439 0.416721 26.888434 -0.000000 0.000000 -0.000000 -8.944191 1.105954 -15.196181 0.246692 -0.721016 17.387712 
7.046404 0.864095 1.475554 -3.654578 -10.771287 -0.985380 -0.000000 -0.000000 -0.000000 -0.238712 0.623211 4.233013 -0.652511 1.325820 8.313567 0.000000 0.000000 0.000000 -0.683080 1.246147 8.197339 0.964071 -2.821582 2.948842 -0.659077 1.302675 8.341011 3.115427 0.965763 0.426844 -74.838781 -9.192231 24.665671 176.109886 -87.040742 -176.368800 -0.680269 1.277658 8.247297 -3.587609 -1.601002 0.959456 79.326986 -10.069800 3.368515 -174.665981 83.060116 -175.099677 0.000000 -0.000000 -0.000000 -0.210667 1.269350 -19.062258 -0.865368 0.418701 26.995921 -0.000000 0.000000 -0.000000 -9.017716 1.065039 -15.206980 0.267658 -0.704910 17.486757 
6.900389 0.864585 1.463710 -3.499278 -10.770905 -0.973717 -0.000000 -0.000000 -0.000000 -0.228426 0.621591 4.231693 -0.645499 1.330917 8.290879 0.000000 0.000000 0.000000 -0.663913 1.262672 8.193526 1.039693 -2.710166 2.853348 -0.646026 1.303983 8.333692 3.131645 0.992053 0.423386 -74.850957 -9.094767 24.613049 175.612915 -87.209591 -175.866570 -0.668934 1.288797 8.243555 -3.632985 -1.606685 0.965387 79.250014 -10.186921 3.356326 -174.845252 82.967436 -175.256135 0.000000 -0.000000 -0.000000 -0.227626 1.329158 -19.038823 -0.854418 0.425278 27.100828 -0.000000 0.000000 -0.000000 -9.044094 1.017136 -15.237224 0.291104 -0.684519 17.603250 
6.684010 0.869314 1.462333 -3.301432 -10.740577 -0.985447 -0.000000 -0.000000 -0.000000 -0.217192 0.627575 4.241217 -0.638551 1.332844 8.260040 0.000000 0.000000 0.000000 -0.642430 1.280497 8.189818 1.121226 -2.575887 2.744933 -0.632455 1.303940 8.322313 3.140270 1.000721 0.419994 -74.839667 -9.011595 24.580095 175.058744 -87.384336 -175.305374 -0.658717 1.298917 8.240862 -3.767419 -1.614816 0.981190 79.163313 -10.373242 3.343605 -175.019724 82.872956 -175.396849 0.000000 -0.000000 -0.000000 -0.201882 1.375687 -18.998224 -0.843851 0.440033 27.161975 -0.000000 0.000000 -0.000000 -9.010809 0.979968 -15.253628 0.312672 -0.655490 17.682484 
6.398913 0.880162 1.473692 -3.074812 -10.664538 -1.024341 -0.000000 -0.000000 -0.000000 -0.207183 0.638502 4.250908 -0.632122 1.330696 8.217817 0.000000 0.000000 0.000000 -0.619311 1.298984 8.177251 1.200615 -2.422494 2.627855 -0.619709 1.305044 8.305200 3.140963 1.010409 0.416773 -74.804804 -8.892635 24.548670 174.185910 -87.612282 -174.425798 -0.646947 1.307377 8.235102 -3.907327 -1.634704 1.001146 79.065988 -10.597879 3.368125 -175.149947 82.803624 -175.490805 0.000000 -0.000000 -0.000000 -0.140414 1.402570 -18.898221 -0.833919 0.460036 27.152496 -0.000000 0.000000 -0.000000 -8.920767 0.954184 -15.244229 0.327887 -0.626070 17.735498 
6.047067 0.898323 1.497924 -2.816760 -10.531586 -1.105303 -0.000000 -0.000000 -0.000000 -0.201992 0.656567 4.246749 -0.624157 1.325280 8.161132 0.000000 0.000000 0.000000 -0.594044 1.318491 8.161128 1.269059 -2.259998 2.507254 -0.607106 1.306522 8.278835 3.134204 1.035099 0.414056 -74.751160 -8.739869 24.497490 172.924476 -87.885150 -173.157893 -0.634602 1.314420 8.221521 -4.041279 -1.667469 1.023000 78.947545 -10.837144 3.422561 -175.101377 82.779987 -175.421528 0.000000 -0.000000 -0.000000 -0.057449 1.403065 -18.684571 -0.821475 0.484229 26.946813 -0.000000 0.000000 -0.000000 -8.766125 0.948412 -15.180727 0.336987 -0.599382 17.754278 
5.630412 0.924268 1.534215 -2.560630 -10.371028 -1.214403 -0.000000 -0.000000 -0.000000 -0.200884 0.671880 4.245590 -0.611265 1.316559 8.087105 0.000000 0.000000 0.000000 -0.567763 1.338471 8.126256 1.322238 -2.102595 2.399756 -0.593745 1.307702 8.236833 3.128556 1.077484 0.411199 -74.742548 -8.503600 24.370829 170.726738 -88.235104 -170.955409 -0.620959 1.320673 8.198988 -4.148754 -1.706971 1.041917 78.785708 -11.065094 3.510804 -175.075688 82.732209 -175.371714 0.000000 0.000000 -0.000000 0.051651 1.377483 -18.372038 -0.809348 0.504235 26.564097 -0.000000 0.000000 -0.000000 -8.561886 0.952670 -15.054931 0.342754 -0.578957 17.728819 
5.148075 0.957777 1.579702 -2.311066 -10.169884 -1.334383 -0.000000 0.000000 -0.000000 -0.199096 0.685733 4.246634 -0.593954 1.303602 7.998762 0.000000 0.000000 0.000000 -0.538228 1.359195 8.080000 1.357383 -1.955612 2.298243 -0.577557 1.308446 8.174725 3.127351 1.143415 0.410582 -74.777924 -8.178767 24.186723 166.383221 -88.688389 -166.603269 -0.604093 1.325498 8.162400 -4.216406 -1.751157 1.055323 78.610906 -11.212394 3.631227 -175.063816 82.683222 -175.336586 0.000000 0.000000 -0.000000 0.165838 1.328944 -17.983868 -0.797379 0.530496 26.089329 -0.000000 0.000000 -0.000000 -8.330831 0.942675 -14.845555 0.347106 -0.565763 17.638038 
